<?xml version="1.0" encoding="UTF-8"?>
<svg version="1.1" xmlns="http://www.w3.org/2000/svg" width="512" height="512">
<path d="M0 0 C1.15063594 -0.00382555 2.30127188 -0.00765109 3.48677558 -0.01159257 C7.33340885 -0.02189211 11.179892 -0.01793612 15.02653503 -0.01396179 C17.78816152 -0.01721737 20.54977971 -0.02342922 23.31140137 -0.02944946 C30.0290505 -0.04218045 36.74665963 -0.04399212 43.46431879 -0.0416492 C48.92694832 -0.03986393 54.38956575 -0.04162016 59.85219383 -0.04587364 C60.63058583 -0.04646883 61.40897783 -0.04706402 62.21095746 -0.04767724 C63.79243615 -0.04888904 65.37391483 -0.05010317 66.95539352 -0.05131962 C81.7776039 -0.0621892 96.59979151 -0.06003555 111.42200317 -0.05393478 C124.96793153 -0.0487673 138.51378794 -0.06001761 152.05970208 -0.07903299 C165.98289805 -0.09842749 179.90606002 -0.1066645 193.82926959 -0.10290974 C201.64034212 -0.10099999 209.45135344 -0.10346308 217.26241493 -0.11762428 C223.91285753 -0.12955968 230.56320124 -0.13091891 237.21364526 -0.11883412 C240.60344025 -0.11296018 243.99290699 -0.1134432 247.38271332 -0.12383652 C251.06577408 -0.13431281 254.74835281 -0.12619544 258.43139648 -0.11352539 C259.49114569 -0.12089968 260.5508949 -0.12827396 261.64275771 -0.13587171 C278.28482541 -0.01585418 293.10430397 6.77547324 304.78117371 18.43647766 C316.99092252 31.5728592 322.21970627 46.52764369 322.40617371 64.26069641 C321.37971893 81.57736873 314.48566465 97.23955633 301.84367371 109.19819641 C290.34962618 118.92392893 276.98747737 124.43634912 261.94638062 124.38095093 C261.09681315 124.38180535 260.24724569 124.38265978 259.37193376 124.38354009 C256.52679889 124.38518647 253.68172306 124.37968729 250.83659363 124.3742218 C248.7964732 124.37393972 246.75635267 124.37409807 244.7162323 124.37466431 C239.17743995 124.37495147 233.63866921 124.36906776 228.09988189 124.36209035 C222.31162484 124.35584339 216.52336732 124.35525195 210.73510742 124.35406494 C199.77402727 124.35095559 188.81295709 124.34274753 177.85188133 124.33271545 C165.37316495 124.32154203 152.8944481 124.31604076 140.41572797 124.31102002 C114.74586975 124.3005646 89.07602519 124.28222402 63.40617371 124.26069641 C63.40617371 147.36069641 63.40617371 170.46069641 63.40617371 194.26069641 C74.82855652 194.22589172 86.25093933 194.19108704 98.01945496 194.15522766 C105.26099345 194.13989689 112.50252017 194.12533054 119.74406433 194.11421204 C131.23507209 194.09642708 142.72601375 194.07554513 154.21696472 194.03437805 C162.58661949 194.0044076 170.9562205 193.98510529 179.32592744 193.97843093 C183.75461782 193.97453159 188.18315448 193.96541418 192.61179543 193.94350624 C196.78717316 193.9230201 200.96233503 193.91688691 205.13775826 193.92137337 C206.66346666 193.92055356 208.18918289 193.9146605 209.71484756 193.90307999 C227.57018945 193.77429082 243.19134858 198.32436345 256.23429871 211.02632141 C256.95101746 211.76366516 257.66773621 212.50100891 258.40617371 213.26069641 C259.35750183 214.18108704 259.35750183 214.18108704 260.32804871 215.12007141 C271.52801765 226.71649943 275.94485506 242.6512087 275.82609558 258.40498352 C275.28513684 274.91289428 268.72413957 289.80828012 257.25773621 301.69038391 C241.25306143 316.11651542 223.42276802 319.4292129 202.36125183 319.3742218 C200.84284975 319.37393938 199.32444753 319.37409874 197.80604553 319.37466431 C193.70333224 319.37495014 189.60064844 319.3690881 185.49794197 319.36209035 C181.20315324 319.35582108 176.90836377 319.35525019 172.61357117 319.35406494 C164.4894082 319.35096214 156.36525876 319.34276296 148.24110174 319.33271545 C137.25682106 319.31942681 126.27253666 319.31404591 115.28824997 319.30821323 C97.99421443 319.29882234 80.70020742 319.2788964 63.40617371 319.26069641 C63.40617371 342.03069641 63.40617371 364.80069641 63.40617371 388.26069641 C69.58368347 388.24498596 75.76119324 388.22927551 82.12590027 388.21308899 C102.53779176 388.1633767 122.94968564 388.1300879 143.36162186 388.1052599 C155.737181 388.08980608 168.11268269 388.06874493 180.48820496 388.03437805 C191.27757804 388.00443026 202.06690951 387.98511061 212.856323 387.97843093 C218.56661873 387.9745278 224.27679542 387.96538579 229.98705292 387.94350624 C235.36814075 387.92305612 240.74906117 387.91687982 246.13018417 387.92137337 C248.0989231 387.92055197 250.06766796 387.9146374 252.03637314 387.90307999 C272.56451068 387.7885384 289.7126142 391.69175865 304.90226746 406.42866516 C317.18693544 420.32318043 323.12966736 436.69772602 322.28117371 455.32319641 C320.6875858 471.69868598 313.9274398 484.71966829 302.40617371 496.26069641 C301.4490448 497.23522766 301.4490448 497.23522766 300.47257996 498.22944641 C289.44224638 508.68647782 275.31297908 512.73166763 260.47140503 512.64837646 C258.72662856 512.65645477 258.72662856 512.65645477 256.94660407 512.66469628 C253.74473539 512.67646196 250.5432042 512.67493573 247.34133303 512.66752946 C243.87767268 512.66277674 240.41406678 512.67532622 236.95042419 512.68554688 C230.1748775 512.70269992 223.39942368 512.70358207 216.62386092 512.69833397 C211.11314111 512.69428406 205.60244863 512.69574556 200.09173012 512.70108223 C199.30586046 512.70183065 198.5199908 512.70257907 197.71030692 512.70335018 C196.11353176 512.70488174 194.5167566 512.70642009 192.91998146 512.70796514 C177.96177644 512.72167785 163.00362378 512.71626143 148.04541997 512.70477993 C134.38131575 512.69485159 120.71734701 512.70778348 107.05326369 512.73171412 C93.00116605 512.75613763 78.94913143 512.76570484 64.89701301 512.7590614 C57.01658521 512.75557604 49.13626152 512.7577558 41.25584984 512.77531242 C34.54656269 512.79007527 27.83745296 512.79061694 21.12816914 512.77324151 C17.70975323 512.76476199 14.29165372 512.76250627 10.87325478 512.77789307 C7.15583913 512.79114332 3.43927316 512.77951816 -0.27810669 512.76190186 C-1.34233882 512.77150686 -2.40657095 512.78111187 -3.50305253 512.79100794 C-19.49858649 512.63595881 -33.66886926 505.79706891 -45.20710754 494.90913391 C-59.26613945 479.30844057 -62.90724425 462.25097376 -62.85452271 441.80822754 C-62.8575466 440.14244091 -62.86143727 438.47665566 -62.86611527 436.81087285 C-62.87637342 432.25230441 -62.87421902 427.6938148 -62.86993468 423.13523996 C-62.86746348 418.21145878 -62.87648653 413.28769638 -62.88397217 408.36392212 C-62.89671037 398.72484138 -62.89851394 389.08578851 -62.89617191 379.44670077 C-62.89438755 371.60999537 -62.8961409 363.77329841 -62.90039635 355.93659401 C-62.90099154 354.82045637 -62.90158673 353.70431872 -62.90219995 352.55435872 C-62.90341173 350.28678057 -62.90462586 348.01920242 -62.90584233 345.75162426 C-62.91671454 324.49415242 -62.91455691 303.23669644 -62.90845748 281.97922371 C-62.90328897 262.54377673 -62.9145426 243.10837989 -62.9335557 223.67294284 C-62.95294045 203.70410961 -62.96118896 183.73530008 -62.95743245 163.76645738 C-62.95552133 152.56051726 -62.95799929 141.3546198 -62.97214699 130.14868736 C-62.98406987 120.60859782 -62.98545548 111.0685772 -62.97335682 101.52848669 C-62.96747447 96.66409681 -62.96635093 91.79983294 -62.97835922 86.93545151 C-62.98923921 82.47618729 -62.98608957 78.01715398 -62.97209754 73.55790047 C-62.96945643 71.95098016 -62.9717986 70.34404163 -62.9798334 68.73713925 C-63.0702616 49.29121663 -58.68885152 31.52466886 -44.59382629 17.26069641 C-31.45139961 5.64777628 -17.37853286 -0.06158717 0 0 Z " fill="#FDD782" transform="translate(126.59382629394531,-0.2606964111328125)"/>
<path d="M0 0 C1.15063594 -0.00382555 2.30127188 -0.00765109 3.48677558 -0.01159257 C7.33340885 -0.02189211 11.179892 -0.01793612 15.02653503 -0.01396179 C17.78816152 -0.01721737 20.54977971 -0.02342922 23.31140137 -0.02944946 C30.0290505 -0.04218045 36.74665963 -0.04399212 43.46431879 -0.0416492 C48.92694832 -0.03986393 54.38956575 -0.04162016 59.85219383 -0.04587364 C60.63058583 -0.04646883 61.40897783 -0.04706402 62.21095746 -0.04767724 C63.79243615 -0.04888904 65.37391483 -0.05010317 66.95539352 -0.05131962 C81.7776039 -0.0621892 96.59979151 -0.06003555 111.42200317 -0.05393478 C124.96793153 -0.0487673 138.51378794 -0.06001761 152.05970208 -0.07903299 C165.98289805 -0.09842749 179.90606002 -0.1066645 193.82926959 -0.10290974 C201.64034212 -0.10099999 209.45135344 -0.10346308 217.26241493 -0.11762428 C223.91285753 -0.12955968 230.56320124 -0.13091891 237.21364526 -0.11883412 C240.60344025 -0.11296018 243.99290699 -0.1134432 247.38271332 -0.12383652 C251.06577408 -0.13431281 254.74835281 -0.12619544 258.43139648 -0.11352539 C259.49114569 -0.12089968 260.5508949 -0.12827396 261.64275771 -0.13587171 C278.28482541 -0.01585418 293.10430397 6.77547324 304.78117371 18.43647766 C316.99092252 31.5728592 322.21970627 46.52764369 322.40617371 64.26069641 C321.37971893 81.57736873 314.48566465 97.23955633 301.84367371 109.19819641 C290.34962618 118.92392893 276.98747737 124.43634912 261.94638062 124.38095093 C261.09681315 124.38180535 260.24724569 124.38265978 259.37193376 124.38354009 C256.52679889 124.38518647 253.68172306 124.37968729 250.83659363 124.3742218 C248.7964732 124.37393972 246.75635267 124.37409807 244.7162323 124.37466431 C239.17743995 124.37495147 233.63866921 124.36906776 228.09988189 124.36209035 C222.31162484 124.35584339 216.52336732 124.35525195 210.73510742 124.35406494 C199.77402727 124.35095559 188.81295709 124.34274753 177.85188133 124.33271545 C165.37316495 124.32154203 152.8944481 124.31604076 140.41572797 124.31102002 C114.74586975 124.3005646 89.07602519 124.28222402 63.40617371 124.26069641 C63.40617371 147.36069641 63.40617371 170.46069641 63.40617371 194.26069641 C74.82855652 194.22589172 86.25093933 194.19108704 98.01945496 194.15522766 C105.26099345 194.13989689 112.50252017 194.12533054 119.74406433 194.11421204 C131.23507209 194.09642708 142.72601375 194.07554513 154.21696472 194.03437805 C162.58661949 194.0044076 170.9562205 193.98510529 179.32592744 193.97843093 C183.75461782 193.97453159 188.18315448 193.96541418 192.61179543 193.94350624 C196.78717316 193.9230201 200.96233503 193.91688691 205.13775826 193.92137337 C206.66346666 193.92055356 208.18918289 193.9146605 209.71484756 193.90307999 C227.57018945 193.77429082 243.19134858 198.32436345 256.23429871 211.02632141 C256.95101746 211.76366516 257.66773621 212.50100891 258.40617371 213.26069641 C259.35750183 214.18108704 259.35750183 214.18108704 260.32804871 215.12007141 C271.52801765 226.71649943 275.94485506 242.6512087 275.82609558 258.40498352 C275.28513684 274.91289428 268.72413957 289.80828012 257.25773621 301.69038391 C241.25306143 316.11651542 223.42276802 319.4292129 202.36125183 319.3742218 C200.84284975 319.37393938 199.32444753 319.37409874 197.80604553 319.37466431 C193.70333224 319.37495014 189.60064844 319.3690881 185.49794197 319.36209035 C181.20315324 319.35582108 176.90836377 319.35525019 172.61357117 319.35406494 C164.4894082 319.35096214 156.36525876 319.34276296 148.24110174 319.33271545 C137.25682106 319.31942681 126.27253666 319.31404591 115.28824997 319.30821323 C97.99421443 319.29882234 80.70020742 319.2788964 63.40617371 319.26069641 C63.40617371 342.03069641 63.40617371 364.80069641 63.40617371 388.26069641 C69.58368347 388.24498596 75.76119324 388.22927551 82.12590027 388.21308899 C102.53779176 388.1633767 122.94968564 388.1300879 143.36162186 388.1052599 C155.737181 388.08980608 168.11268269 388.06874493 180.48820496 388.03437805 C191.27757804 388.00443026 202.06690951 387.98511061 212.856323 387.97843093 C218.56661873 387.9745278 224.27679542 387.96538579 229.98705292 387.94350624 C235.36814075 387.92305612 240.74906117 387.91687982 246.13018417 387.92137337 C248.0989231 387.92055197 250.06766796 387.9146374 252.03637314 387.90307999 C272.56451068 387.7885384 289.7126142 391.69175865 304.90226746 406.42866516 C317.18693544 420.32318043 323.12966736 436.69772602 322.28117371 455.32319641 C320.6875858 471.69868598 313.9274398 484.71966829 302.40617371 496.26069641 C301.4490448 497.23522766 301.4490448 497.23522766 300.47257996 498.22944641 C289.44224638 508.68647782 275.31297908 512.73166763 260.47140503 512.64837646 C258.72662856 512.65645477 258.72662856 512.65645477 256.94660407 512.66469628 C253.74473539 512.67646196 250.5432042 512.67493573 247.34133303 512.66752946 C243.87767268 512.66277674 240.41406678 512.67532622 236.95042419 512.68554688 C230.1748775 512.70269992 223.39942368 512.70358207 216.62386092 512.69833397 C211.11314111 512.69428406 205.60244863 512.69574556 200.09173012 512.70108223 C199.30586046 512.70183065 198.5199908 512.70257907 197.71030692 512.70335018 C196.11353176 512.70488174 194.5167566 512.70642009 192.91998146 512.70796514 C177.96177644 512.72167785 163.00362378 512.71626143 148.04541997 512.70477993 C134.38131575 512.69485159 120.71734701 512.70778348 107.05326369 512.73171412 C93.00116605 512.75613763 78.94913143 512.76570484 64.89701301 512.7590614 C57.01658521 512.75557604 49.13626152 512.7577558 41.25584984 512.77531242 C34.54656269 512.79007527 27.83745296 512.79061694 21.12816914 512.77324151 C17.70975323 512.76476199 14.29165372 512.76250627 10.87325478 512.77789307 C7.15583913 512.79114332 3.43927316 512.77951816 -0.27810669 512.76190186 C-1.34233882 512.77150686 -2.40657095 512.78111187 -3.50305253 512.79100794 C-19.49858649 512.63595881 -33.66886926 505.79706891 -45.20710754 494.90913391 C-59.26613945 479.30844057 -62.90724425 462.25097376 -62.85452271 441.80822754 C-62.8575466 440.14244091 -62.86143727 438.47665566 -62.86611527 436.81087285 C-62.87637342 432.25230441 -62.87421902 427.6938148 -62.86993468 423.13523996 C-62.86746348 418.21145878 -62.87648653 413.28769638 -62.88397217 408.36392212 C-62.89671037 398.72484138 -62.89851394 389.08578851 -62.89617191 379.44670077 C-62.89438755 371.60999537 -62.8961409 363.77329841 -62.90039635 355.93659401 C-62.90099154 354.82045637 -62.90158673 353.70431872 -62.90219995 352.55435872 C-62.90341173 350.28678057 -62.90462586 348.01920242 -62.90584233 345.75162426 C-62.91671454 324.49415242 -62.91455691 303.23669644 -62.90845748 281.97922371 C-62.90328897 262.54377673 -62.9145426 243.10837989 -62.9335557 223.67294284 C-62.95294045 203.70410961 -62.96118896 183.73530008 -62.95743245 163.76645738 C-62.95552133 152.56051726 -62.95799929 141.3546198 -62.97214699 130.14868736 C-62.98406987 120.60859782 -62.98545548 111.0685772 -62.97335682 101.52848669 C-62.96747447 96.66409681 -62.96635093 91.79983294 -62.97835922 86.93545151 C-62.98923921 82.47618729 -62.98608957 78.01715398 -62.97209754 73.55790047 C-62.96945643 71.95098016 -62.9717986 70.34404163 -62.9798334 68.73713925 C-63.0702616 49.29121663 -58.68885152 31.52466886 -44.59382629 17.26069641 C-31.45139961 5.64777628 -17.37853286 -0.06158717 0 0 Z M-32.59382629 32.26069641 C-33.07851379 32.74022766 -33.56320129 33.21975891 -34.06257629 33.71382141 C-41.33358244 41.35579726 -44.71269295 51.59522991 -44.72804737 61.97914028 C-44.7303996 62.65689875 -44.73275183 63.33465722 -44.73517534 64.03295383 C-44.74185684 66.31456745 -44.74140737 68.596124 -44.74099731 70.87774658 C-44.74429648 72.52597963 -44.74802216 74.17421186 -44.75213879 75.82244307 C-44.76216115 80.36034001 -44.76587598 84.89822372 -44.7685281 89.43613017 C-44.77243053 94.32729379 -44.78200902 99.21844694 -44.79074097 104.10960388 C-44.81050861 115.92715969 -44.82057263 127.74471635 -44.82946876 139.56228456 C-44.83385175 145.12785339 -44.83921859 150.69342126 -44.84445763 156.25898933 C-44.86147131 174.76178636 -44.87596485 193.26458279 -44.88320637 211.76738644 C-44.88511626 216.5695998 -44.88703659 221.37181315 -44.88899231 226.17402649 C-44.88947605 227.36759097 -44.88995979 228.56115545 -44.89045819 229.79088856 C-44.89875608 249.12002893 -44.92408831 268.44910737 -44.95657299 287.77822071 C-44.98965524 307.62481915 -45.00765624 327.47138614 -45.01085061 347.3180123 C-45.01301478 358.4603478 -45.02174971 369.60259303 -45.04731178 380.74490166 C-45.06903479 390.23573702 -45.07706135 399.72646017 -45.067345 409.21731757 C-45.06280478 414.05740549 -45.0646704 418.89726197 -45.08410645 423.73731804 C-45.10177093 428.1746678 -45.10071382 432.61161787 -45.08520915 437.04897208 C-45.08283804 438.64800139 -45.08713068 440.24705863 -45.0990378 441.84604537 C-45.20603106 457.17240064 -42.27103168 470.53398023 -31.78523254 482.28804016 C-21.28790541 492.26159213 -8.51144916 495.570829 5.53097534 495.52812195 C7.18130861 495.53491862 7.18130861 495.53491862 8.86498195 495.54185259 C12.5411091 495.55448378 16.21708784 495.55287702 19.89323425 495.55122375 C22.53339179 495.55720984 25.17353784 495.56395933 27.81369019 495.57157898 C34.2352234 495.58815663 40.65671989 495.59368708 47.07827272 495.59480374 C52.30156468 495.59575585 57.52484457 495.59987428 62.74813271 495.60620499 C77.57615269 495.6238094 92.40414379 495.63304523 107.2321743 495.63154404 C108.42999956 495.63142417 108.42999956 495.63142417 109.65202332 495.63130188 C110.45155526 495.63122012 111.2510872 495.63113836 112.07484738 495.63105412 C125.02452548 495.63024168 137.97408715 495.64937072 150.92373159 495.67757861 C164.23899203 495.70635265 177.55419576 495.72011639 190.86948806 495.71839106 C198.33747739 495.71772867 205.80534468 495.72315452 213.27330589 495.74474716 C219.63312639 495.76301869 225.99276954 495.76725768 232.35260501 495.75372832 C235.59281489 495.7472282 238.83261698 495.74917572 242.07280731 495.76443481 C261.0148353 495.84783182 276.95058037 495.03474365 291.65617371 481.63569641 C301.25392518 471.53280012 304.02051529 459.15296263 303.71476746 445.74897766 C303.13274786 434.16896126 297.01193249 424.42889474 288.78117371 416.51069641 C279.57824725 408.91062799 269.29143932 406.10460079 257.63162231 406.12939453 C256.74812514 406.12727882 255.86462797 406.1251631 254.95435816 406.12298328 C251.99419241 406.11699216 249.03406939 406.11798278 246.07389832 406.11885071 C243.95159839 406.11581873 241.82929911 406.11229716 239.70700073 406.10832214 C235.1371548 406.10043746 230.56731666 406.09528993 225.99746513 406.09203148 C218.7750802 406.08612204 211.55274455 406.06958364 204.3303833 406.0506897 C201.85834792 406.04435258 199.38631251 406.03802696 196.91427708 406.03171253 C195.6764196 406.02854672 194.43856213 406.02538091 193.16319382 406.02211916 C176.34828103 405.98002142 159.53339158 405.94704676 142.71842957 405.93476868 C131.37565663 405.92640122 120.03300605 405.9039623 108.69029433 405.86541301 C102.68634243 405.84561358 96.68257361 405.8332608 90.67858696 405.8382473 C85.03553514 405.84287725 79.39283101 405.82917904 73.74984932 405.8012352 C71.6761756 405.79429643 69.60246613 405.79422552 67.52879333 405.80143547 C64.70335775 405.81026913 61.87908244 405.79471962 59.05374146 405.77294922 C58.22835859 405.78139176 57.40297572 405.78983429 56.55258125 405.79853266 C52.92555425 405.74665859 50.84729561 405.6001781 47.92820072 403.35368061 C44.9311247 399.23231306 45.24487775 395.60465747 45.22917175 390.66767883 C45.22260056 389.77808975 45.21602936 388.88850067 45.20925903 387.97195435 C45.18950433 385.02002382 45.17785885 382.0681442 45.16789246 379.11616516 C45.16381693 378.10924433 45.1597414 377.10232349 45.15554237 376.06488991 C45.13467276 370.73587371 45.12037467 365.40688333 45.11100769 360.07783508 C45.09993901 354.56959477 45.06553624 349.06175797 45.02583599 343.55366039 C44.99970883 339.32174928 44.99131934 335.08993489 44.98772621 330.85795021 C44.98285047 328.82735276 44.97120851 326.79675991 44.95268822 324.76624107 C44.92837897 321.92446665 44.92924675 319.08374382 44.936203 316.24189758 C44.92339294 315.40274811 44.91058289 314.56359863 44.89738464 313.69902039 C44.90432846 312.92093521 44.91127228 312.14285004 44.91842651 311.34118652 C44.91603816 310.66995349 44.91364981 309.99872046 44.91118908 309.30714703 C45.68162027 306.12189782 47.04713426 304.50993004 49.40617371 302.26069641 C52.49580097 301.64380646 52.49580097 301.64380646 56.20214844 301.65510559 C56.885103 301.65027774 57.56805756 301.6454499 58.27170771 301.64047575 C60.56041199 301.63023685 62.84734033 301.65556755 65.13591003 301.68061829 C66.77716758 301.68035163 68.41842609 301.67781833 70.05967712 301.67318726 C73.59621426 301.66777902 77.13225312 301.67784867 80.66872597 301.69967651 C86.27270644 301.73355998 91.87626554 301.72944808 97.48031616 301.71955872 C110.4023041 301.702561 123.32407849 301.73523678 136.24601746 301.76848602 C148.06106536 301.7984103 159.8758766 301.81759338 171.6909582 301.79682016 C177.24840076 301.78847503 182.80508195 301.80406335 188.36241591 301.83861542 C191.84198141 301.85520612 195.32130604 301.85084658 198.80088806 301.84116936 C200.39910819 301.84091203 201.99735851 301.8490463 203.59547997 301.86680794 C219.03430636 302.02985699 232.60926311 299.04699852 244.40617371 288.26069641 C249.49151778 282.90920349 252.85443104 277.15937758 255.40617371 270.26069641 C255.81867371 269.18819641 256.23117371 268.11569641 256.65617371 267.01069641 C259.09768723 254.80312878 257.2237058 242.80343384 250.46867371 232.26069641 C243.65608682 222.9337383 233.87248362 214.6884067 222.20753002 212.72129536 C218.49826262 212.27185455 214.94803499 212.13322059 211.21337891 212.12939453 C210.17958565 212.12622096 210.17958565 212.12622096 209.12490767 212.12298328 C206.83428794 212.11703056 204.54372402 212.11798 202.25309753 212.11885071 C200.60340278 212.11581624 198.95370887 212.112294 197.30401611 212.10832214 C193.76114625 212.10045778 190.21828634 212.09529769 186.67540932 212.09203148 C181.07429569 212.08610603 175.47324507 212.06955351 169.87216187 212.0506897 C167.95275978 212.04435326 166.03335766 212.03802762 164.1139555 212.03171253 C163.15309044 212.02854672 162.19222539 212.02538091 161.20224321 212.02211916 C148.16842426 211.9800625 135.13463616 211.94703765 122.10075378 211.93476868 C113.29888098 211.92639842 104.49716577 211.90395275 95.69537181 211.86541301 C91.03953494 211.84562984 86.38393374 211.83325555 81.72805214 211.8382473 C77.35385306 211.84288071 72.98010199 211.82916053 68.60599327 211.8012352 C66.99996282 211.79430334 65.39388625 211.79421823 63.78785706 211.80143547 C61.59737358 211.8102864 59.40837977 211.79469454 57.21801758 211.77294922 C55.99190671 211.77056087 54.76579584 211.76817251 53.5025301 211.76571178 C49.81645603 211.16451352 48.6746722 210.1615079 46.40617371 207.26069641 C44.75537878 203.95910657 45.25896766 200.28120969 45.26091003 196.65180969 C45.25755142 195.76061432 45.25419281 194.86941895 45.25073242 193.95121765 C45.24120538 190.99446736 45.23927838 188.03777361 45.23820496 185.08100891 C45.23499342 183.03078691 45.23162943 180.98056514 45.2281189 178.93034363 C45.22212312 174.62785816 45.22027944 170.32539279 45.22087097 166.02290344 C45.22097258 160.50572555 45.20732361 154.98867639 45.19009876 149.47152901 C45.1789877 145.23537096 45.17695149 140.9992441 45.1774807 136.76307297 C45.17629911 134.72888114 45.17186734 132.69468854 45.16414833 130.66051102 C45.1543672 127.81637272 45.15721917 124.97251486 45.16325378 122.12837219 C45.15763428 121.28562744 45.15201477 120.44288269 45.14622498 119.57460022 C45.1866764 112.08404509 45.1866764 112.08404509 47.40617371 109.26069641 C51.24646638 106.55629571 55.53849714 106.98667496 60.03787231 107.01586914 C60.91824852 107.01360457 61.79862473 107.01133999 62.705679 107.0090068 C65.66182508 107.00370115 68.61776257 107.01255005 71.57389832 107.02119446 C73.69130012 107.02008178 75.80870162 107.01802429 77.92610168 107.01509094 C82.49050548 107.01036362 87.05485787 107.01149437 91.61926079 107.01686668 C98.84405098 107.02446975 106.06874192 107.01382706 113.29351807 106.99966431 C133.83994405 106.96190981 154.38632593 106.94371462 174.93278503 106.95527649 C186.27710743 106.96150293 197.62127016 106.94985785 208.96555334 106.91883117 C216.13912608 106.90021744 223.31224518 106.90345821 230.48581016 106.92299879 C234.96391444 106.92990773 239.44177589 106.91586892 243.91983414 106.8960495 C245.98651036 106.8910254 248.05322817 106.8944267 250.11987114 106.90718269 C265.84042486 106.99726368 278.39977924 105.51374848 290.40617371 94.26069641 C291.04297058 93.66514954 291.67976746 93.06960266 292.33586121 92.45600891 C301.20177603 83.28568499 303.74046517 71.65684106 303.79118347 59.3273468 C303.54768317 46.18491181 296.95485655 36.42112177 287.71867371 27.51069641 C280.89737254 21.77065825 271.54918856 18.14864766 262.62149048 18.12368202 C261.6560261 18.11860748 260.69056171 18.11353294 259.69584084 18.10830462 C258.63788496 18.10780686 257.57992908 18.10730911 256.48991394 18.10679626 C255.36381903 18.10241401 254.23772411 18.09803176 253.07750511 18.09351671 C249.28992422 18.08012214 245.5023666 18.0739483 241.71476746 18.06782532 C239.00461547 18.06045072 236.29446835 18.05166083 233.58432007 18.04304504 C225.44051937 18.01853641 217.29671261 18.00389521 209.15288639 17.99098498 C206.85155002 17.98727162 204.55021425 17.9832985 202.24887848 17.97923231 C187.94940797 17.953992 173.64993647 17.93194488 159.35044861 17.91950417 C156.03910824 17.9165746 152.7277679 17.91361292 149.41642761 17.91059875 C148.59343705 17.9098527 147.77044649 17.90910665 146.92251682 17.908338 C133.60006822 17.89569301 120.27775334 17.86248076 106.95536721 17.82079692 C93.26847155 17.77832476 79.58164425 17.75480296 65.89468288 17.7495836 C58.21367861 17.74617524 50.53288323 17.7344883 42.85194397 17.70148087 C36.30826568 17.67340631 29.76483911 17.66251325 23.22110528 17.67367633 C19.88568279 17.67884461 16.55121156 17.67334181 13.21579552 17.65121078 C9.58952972 17.62846546 5.96457651 17.63684114 2.33830261 17.6526947 C1.29819251 17.63881261 0.25808241 17.62493053 -0.81354618 17.61062777 C-13.28112024 17.74426149 -24.1489743 23.18248051 -32.59382629 32.26069641 Z " fill="#010100" transform="translate(126.59382629394531,-0.2606964111328125)"/>
<path d="M0 0 C0.88439255 -0.00852997 1.7687851 -0.01705994 2.67997742 -0.02584839 C4.12396408 -0.02448883 4.12396408 -0.02448883 5.59712219 -0.02310181 C6.61712814 -0.02981903 7.63713409 -0.03653625 8.68804932 -0.04345703 C12.0644466 -0.06247363 15.44064537 -0.0663635 18.8170929 -0.06851196 C21.16636232 -0.07493876 23.51563094 -0.08166703 25.86489868 -0.08868408 C30.79356236 -0.10066703 35.72215591 -0.104364 40.65083313 -0.10317993 C46.95453816 -0.10297702 53.25779097 -0.13024689 59.56138897 -0.16472435 C64.41626026 -0.18700888 69.27102313 -0.19101694 74.12594032 -0.18996048 C76.44907498 -0.19231533 78.77221267 -0.20113225 81.09529686 -0.21662521 C84.3527332 -0.23631003 87.60920013 -0.23043602 90.86665344 -0.21841431 C91.81919006 -0.22965332 92.77172668 -0.24089233 93.75312805 -0.25247192 C100.95074891 -0.18526966 107.39509644 1.27051335 112.7467804 6.34555054 C116.08349804 11.63106338 117.23809022 15.00919486 116.55537415 21.26742554 C114.39367804 22.40292321 112.22675525 23.52571526 110.05537415 24.64242554 C109.45467102 24.95953491 108.8539679 25.27664429 108.23506165 25.60336304 C107.62920227 25.91273804 107.0233429 26.22211304 106.39912415 26.54086304 C105.58218079 26.96504517 105.58218079 26.96504517 104.74873352 27.39779663 C97.59536193 30.23398425 90.94566545 30.55104971 83.34309387 30.50793457 C82.23369934 30.50964342 81.1243048 30.51135227 79.98129225 30.5131129 C76.2748001 30.51639946 72.56849016 30.50541767 68.86201477 30.49447632 C66.20076592 30.49391202 63.53952814 30.49414112 60.87828064 30.49536133 C55.15437952 30.496408 49.43052414 30.49015424 43.70663452 30.47888565 C35.43094566 30.46260398 27.15527882 30.45741992 18.87957567 30.45490967 C5.45150899 30.45053675 -7.97653333 30.43723858 -21.40458679 30.41830444 C-34.44560118 30.39993521 -47.48660895 30.38578381 -60.52763367 30.37728882 C-61.33202069 30.37676337 -62.1364077 30.37623792 -62.96517009 30.37569655 C-67.00070421 30.3730864 -71.03623838 30.37055901 -75.07177258 30.36807275 C-108.52940799 30.34735279 -141.98701393 30.31213824 -175.44462585 30.26742554 C-175.44462585 29.93742554 -175.44462585 29.60742554 -175.44462585 29.26742554 C-96.24462585 28.77242554 -96.24462585 28.77242554 -15.44462585 28.26742554 C-16.43462585 26.61742554 -17.42462585 24.96742554 -18.44462585 23.26742554 C-19.42641859 17.73280962 -18.65246588 12.92396751 -15.44462585 8.26742554 C-10.93188242 3.72198106 -6.63278327 0.02901071 0 0 Z " fill="#F5C14D" transform="translate(296.4446258544922,464.7325744628906)"/>
<path d="M0 0 C0.97313644 -0.00686325 1.94627289 -0.0137265 2.94889832 -0.02079773 C6.15699977 -0.03905762 9.36461176 -0.0352289 12.57275391 -0.02954102 C14.80946003 -0.03410355 17.04616475 -0.03940933 19.28286743 -0.04542542 C23.96842141 -0.05435522 28.65380493 -0.05193519 33.33935547 -0.04199219 C39.33374072 -0.03050927 45.3275363 -0.05070478 51.3218441 -0.07990932 C55.94078285 -0.09828712 60.55958076 -0.09797556 65.17854691 -0.0922718 C67.38806612 -0.09211875 69.59759497 -0.09814993 71.80707932 -0.11056328 C74.90170629 -0.12549895 77.99524986 -0.1147762 81.08984375 -0.09765625 C82.44919792 -0.1121582 82.44919792 -0.1121582 83.83601379 -0.12695312 C90.71973404 -0.04751291 95.90656162 1.68815786 101.23291016 6.11499023 C104.29203283 9.80673601 105.93176511 12.43175112 106.17431641 17.40405273 C92.43388015 29.48401331 78.05604402 29.09511354 60.71728516 28.89233398 C58.35932672 28.88299332 56.0013585 28.87588314 53.64338684 28.87089539 C47.4766804 28.85192447 41.31057509 28.80290945 35.144104 28.74737549 C28.83589811 28.69596843 22.52759385 28.6733357 16.21923828 28.64819336 C3.87066878 28.5947808 -8.47745716 28.50958904 -20.82568359 28.40405273 C-23.75860467 22.92848128 -23.77776016 17.49443563 -22.82568359 11.40405273 C-17.8332088 2.10970484 -9.86288988 -0.04877514 0 0 Z " fill="#FDC64E" transform="translate(309.82568359375,77.595947265625)"/>
<path d="M0 0 C1.02232727 -0.0098568 1.02232727 -0.0098568 2.06530762 -0.01991272 C4.32584746 -0.03965695 6.58632072 -0.05131298 8.84692383 -0.0612793 C10.00603492 -0.06739259 10.00603492 -0.06739259 11.18856239 -0.07362938 C15.28146727 -0.09449855 19.37433857 -0.10879451 23.46728516 -0.11816406 C27.68623201 -0.12920843 31.90464849 -0.1635825 36.12340832 -0.20333576 C39.37403817 -0.22954391 42.62454273 -0.23785977 45.87526894 -0.24144554 C47.42973714 -0.24630356 48.98420003 -0.2578952 50.53856468 -0.27648354 C52.72144256 -0.30095774 54.90296307 -0.29989544 57.0859375 -0.29296875 C58.32566818 -0.29883499 59.56539886 -0.30470123 60.84269714 -0.31074524 C65.90149556 0.3894773 69.69379502 2.36642701 73.21411133 6.17700195 C73.61500977 6.83700195 74.0159082 7.49700195 74.42895508 8.17700195 C75.06510742 9.16700195 75.06510742 9.16700195 75.71411133 10.17700195 C76.36645508 12.17700195 76.36645508 12.17700195 75.75708008 14.1809082 C69.42495179 23.27000247 57.91998429 28.05969938 47.36645508 30.17700195 C45.09422939 30.26718456 42.81948517 30.29896369 40.54547119 30.29725647 C39.51741478 30.29853811 39.51741478 30.29853811 38.46858954 30.29984564 C36.17312486 30.30149213 33.87773333 30.29599265 31.58227539 30.29052734 C29.93638613 30.29024527 28.29049674 30.29040361 26.64460754 30.29096985 C22.17596766 30.29125702 17.70735455 30.28537316 13.23872089 30.27839589 C8.56887764 30.2721491 3.8990338 30.2715575 -0.77081299 30.27037048 C-9.61405274 30.26726109 -18.45728015 30.25905296 -27.30051446 30.24902099 C-37.36812862 30.23784772 -47.43574336 30.23234634 -57.50336218 30.22732556 C-78.21342999 30.21687003 -98.92348668 30.19927814 -119.63354492 30.17700195 C-119.63354492 29.84700195 -119.63354492 29.51700195 -119.63354492 29.17700195 C-84.98354492 28.84700195 -50.33354492 28.51700195 -14.63354492 28.17700195 C-15.62354492 26.52700195 -16.61354492 24.87700195 -17.63354492 23.17700195 C-18.45820222 17.65699858 -18.38179549 12.72892905 -15.94604492 7.67700195 C-10.75067976 2.06039097 -7.58530651 0.06042579 0 0 Z " fill="#F4C04C" transform="translate(297.633544921875,270.822998046875)"/>
<path d="M0 0 C4.32818451 0.77289009 5.73745486 2.29369557 8.5 5.625 C8.83 5.955 9.16 6.285 9.5 6.625 C9.19747651 11.86874054 8.24096728 14.88403272 4.5 18.625 C3.84 18.625 3.18 18.625 2.5 18.625 C2.2132692 19.21673508 1.92653839 19.80847015 1.63111877 20.4181366 C0.5 22.625 0.5 22.625 -1.59790039 25.93481445 C-4.38395902 31.54786872 -4.02078773 37.3943296 -3.95528984 43.54094505 C-3.93319855 45.70671317 -3.93718295 47.87110074 -3.94776917 50.03694153 C-3.96931598 55.40904427 -3.9520476 60.78082826 -3.92626953 66.15289307 C-3.90484648 70.70826784 -3.9029331 75.26274967 -3.92918587 79.81810951 C-3.93352413 81.94631374 -3.90894973 84.07294678 -3.88365173 86.20097351 C-3.89038406 87.49614395 -3.89711639 88.79131439 -3.90405273 90.12573242 C-3.89864975 91.26298264 -3.89324677 92.40023285 -3.88768005 93.57194519 C-4.69645518 97.60453438 -6.32188626 99.09713953 -9.5 101.625 C-13 102.25 -13 102.25 -16.5 101.625 C-19.77210856 99.04896471 -21.31909018 97.56619627 -22.11473083 93.42681885 C-22.10966019 92.22152527 -22.10458954 91.01623169 -22.09936523 89.77441406 C-22.10330795 89.10539062 -22.10725067 88.43636719 -22.11131287 87.74707031 C-22.11800311 85.54414964 -22.0888949 83.3433227 -22.05859375 81.140625 C-22.05433889 79.59991863 -22.05201454 78.05920582 -22.05152893 76.51849365 C-22.04536871 73.29035331 -22.02270509 70.06290821 -21.98706055 66.83496094 C-21.94194074 62.71841207 -21.92704176 58.60249491 -21.92332363 54.48572159 C-21.91886966 51.30273324 -21.90351909 48.11987463 -21.8844471 44.93694305 C-21.87562857 43.42045905 -21.86886812 41.90396152 -21.86428642 40.3874588 C-21.77372778 19.30505519 -21.77372778 19.30505519 -16.5 12.625 C-14.54330808 10.79591842 -12.53908503 9.05348244 -10.48046875 7.33984375 C-8.29586819 5.5287457 -8.29586819 5.5287457 -5.9375 2.6875 C-3.5 0.625 -3.5 0.625 0 0 Z " fill="#FEFEFD" transform="translate(105.5,25.375)"/>
</svg>
